<mxfile host="65bd71144e">
    <diagram id="85z3eVl9Vo_y6v-1HVug" name="Page-1">
        <mxGraphModel dx="1085" dy="948" grid="0" gridSize="10" guides="1" tooltips="1" connect="1" arrows="1" fold="1" page="0" pageScale="1" pageWidth="827" pageHeight="1169" background="#ffffff" math="0" shadow="0">
            <root>
                <mxCell id="0"/>
                <mxCell id="1" parent="0"/>
                <mxCell id="32" value="" style="whiteSpace=wrap;html=1;rounded=1;shadow=1;labelBackgroundColor=none;sketch=0;strokeColor=#000000;fontSize=12;fontColor=#000000;fillColor=none;" vertex="1" parent="1">
                    <mxGeometry x="395" y="251" width="583" height="271" as="geometry"/>
                </mxCell>
                <mxCell id="19" style="edgeStyle=none;html=1;strokeColor=#4D4D4D;" edge="1" parent="1" source="2" target="6">
                    <mxGeometry relative="1" as="geometry"/>
                </mxCell>
                <mxCell id="26" value="&lt;font color=&quot;#4d4d4d&quot;&gt;Detect a motion&lt;/font&gt;" style="edgeLabel;html=1;align=center;verticalAlign=middle;resizable=0;points=[];labelBackgroundColor=none;" vertex="1" connectable="0" parent="19">
                    <mxGeometry x="-0.3213" y="-2" relative="1" as="geometry">
                        <mxPoint x="12" y="-10" as="offset"/>
                    </mxGeometry>
                </mxCell>
                <mxCell id="2" value="" style="image;html=1;image=img/lib/clip_art/networking/Ip_Camera_128x128.png;direction=east;flipV=0;flipH=0;" vertex="1" parent="1">
                    <mxGeometry x="160" y="115" width="80" height="80" as="geometry"/>
                </mxCell>
                <mxCell id="3" value="" style="verticalLabelPosition=bottom;html=1;verticalAlign=top;strokeWidth=2;shape=mxgraph.lean_mapping.verbal;pointerEvents=1;fillColor=none;strokeColor=#000000;" vertex="1" parent="1">
                    <mxGeometry x="62" y="117" width="26" height="49" as="geometry"/>
                </mxCell>
                <mxCell id="4" value="" style="verticalLabelPosition=bottom;html=1;verticalAlign=top;strokeWidth=2;shape=mxgraph.lean_mapping.verbal;pointerEvents=1;fillColor=none;strokeColor=#000000;" vertex="1" parent="1">
                    <mxGeometry x="32" y="128" width="26" height="49" as="geometry"/>
                </mxCell>
                <mxCell id="20" style="edgeStyle=none;html=1;strokeColor=#4D4D4D;" edge="1" parent="1" source="6" target="7">
                    <mxGeometry relative="1" as="geometry"/>
                </mxCell>
                <mxCell id="6" value="Streams are processed&lt;br&gt;by Kinesis Video Streams" style="points=[[0,0,0],[0.25,0,0],[0.5,0,0],[0.75,0,0],[1,0,0],[0,1,0],[0.25,1,0],[0.5,1,0],[0.75,1,0],[1,1,0],[0,0.25,0],[0,0.5,0],[0,0.75,0],[1,0.25,0],[1,0.5,0],[1,0.75,0]];outlineConnect=0;fontColor=#232F3E;gradientColor=#945DF2;gradientDirection=north;fillColor=#5A30B5;strokeColor=#ffffff;dashed=0;verticalLabelPosition=bottom;verticalAlign=top;align=center;html=1;fontSize=12;fontStyle=0;aspect=fixed;shape=mxgraph.aws4.resourceIcon;resIcon=mxgraph.aws4.kinesis_video_streams;shadow=1;" vertex="1" parent="1">
                    <mxGeometry x="351" y="124.5" width="60" height="60" as="geometry"/>
                </mxCell>
                <mxCell id="21" style="edgeStyle=none;html=1;strokeColor=#4D4D4D;exitX=0.477;exitY=1.013;exitDx=0;exitDy=0;exitPerimeter=0;entryX=0.5;entryY=0;entryDx=0;entryDy=0;entryPerimeter=0;" edge="1" parent="1" source="27" target="7">
                    <mxGeometry relative="1" as="geometry">
                        <mxPoint x="641.6744384765625" y="154.5" as="targetPoint"/>
                    </mxGeometry>
                </mxCell>
                <mxCell id="7" value="Amazon Rekognition Analyses the video&lt;br&gt;Searches faces from the video against&lt;br&gt;a collection of faces" style="sketch=0;points=[[0,0,0],[0.25,0,0],[0.5,0,0],[0.75,0,0],[1,0,0],[0,1,0],[0.25,1,0],[0.5,1,0],[0.75,1,0],[1,1,0],[0,0.25,0],[0,0.5,0],[0,0.75,0],[1,0.25,0],[1,0.5,0],[1,0.75,0]];outlineConnect=0;fontColor=#232F3E;gradientColor=#4AB29A;gradientDirection=north;fillColor=#116D5B;strokeColor=#ffffff;dashed=0;verticalLabelPosition=bottom;verticalAlign=top;align=center;html=1;fontSize=12;fontStyle=0;aspect=fixed;shape=mxgraph.aws4.resourceIcon;resIcon=mxgraph.aws4.rekognition_2;shadow=1;" vertex="1" parent="1">
                    <mxGeometry x="544" y="122.5" width="60" height="60" as="geometry"/>
                </mxCell>
                <mxCell id="9" value="" style="verticalLabelPosition=bottom;html=1;verticalAlign=top;align=center;strokeColor=none;fillColor=#00BEF2;shape=mxgraph.azure.user;shadow=1;sketch=0;" vertex="1" parent="1">
                    <mxGeometry x="542" y="-6" width="25" height="26.5" as="geometry"/>
                </mxCell>
                <mxCell id="11" value="" style="verticalLabelPosition=bottom;html=1;verticalAlign=top;align=center;strokeColor=none;fillColor=#00BEF2;shape=mxgraph.azure.user;shadow=1;sketch=0;" vertex="1" parent="1">
                    <mxGeometry x="571" y="6" width="25" height="26.5" as="geometry"/>
                </mxCell>
                <mxCell id="12" value="" style="whiteSpace=wrap;html=1;shadow=1;sketch=0;strokeColor=#000000;fillColor=none;rounded=1;" vertex="1" parent="1">
                    <mxGeometry x="543" y="-10" width="25" height="23.5" as="geometry"/>
                </mxCell>
                <mxCell id="13" value="" style="whiteSpace=wrap;html=1;shadow=1;sketch=0;strokeColor=#000000;fillColor=none;rounded=1;" vertex="1" parent="1">
                    <mxGeometry x="572" width="25" height="23.5" as="geometry"/>
                </mxCell>
                <mxCell id="23" style="edgeStyle=none;html=1;strokeColor=#4D4D4D;" edge="1" parent="1" source="14" target="15">
                    <mxGeometry relative="1" as="geometry"/>
                </mxCell>
                <mxCell id="14" value="&lt;span style=&quot;color: rgb(64, 64, 64); font-family: -apple-system, &amp;quot;system-ui&amp;quot;, &amp;quot;Segoe UI&amp;quot;, Roboto, Oxygen-Sans, Ubuntu, Cantarell, &amp;quot;Helvetica Neue&amp;quot;, sans-serif; text-align: start; background-color: rgb(255, 255, 255);&quot;&gt;&lt;font style=&quot;font-size: 12px;&quot;&gt;Amazon Kinesis Data stream receives the analyse&lt;br&gt;&amp;nbsp;response from Amazon Rekognition&lt;br&gt;&amp;nbsp;and forward it to AWS Lambda&lt;/font&gt;&lt;/span&gt;" style="sketch=0;points=[[0,0,0],[0.25,0,0],[0.5,0,0],[0.75,0,0],[1,0,0],[0,1,0],[0.25,1,0],[0.5,1,0],[0.75,1,0],[1,1,0],[0,0.25,0],[0,0.5,0],[0,0.75,0],[1,0.25,0],[1,0.5,0],[1,0.75,0]];outlineConnect=0;fontColor=#232F3E;gradientColor=#945DF2;gradientDirection=north;fillColor=#5A30B5;strokeColor=#ffffff;dashed=0;verticalLabelPosition=bottom;verticalAlign=top;align=center;html=1;fontSize=12;fontStyle=0;aspect=fixed;shape=mxgraph.aws4.resourceIcon;resIcon=mxgraph.aws4.kinesis_data_streams;rounded=1;shadow=1;" vertex="1" parent="1">
                    <mxGeometry x="832" y="123" width="60" height="60" as="geometry"/>
                </mxCell>
                <mxCell id="24" style="edgeStyle=none;html=1;entryX=1;entryY=0.5;entryDx=0;entryDy=0;entryPerimeter=0;strokeColor=#4D4D4D;" edge="1" parent="1" source="15" target="16">
                    <mxGeometry relative="1" as="geometry"/>
                </mxCell>
                <mxCell id="15" value="Feed the response and Publish a&amp;nbsp;&lt;br&gt;message to Amazon SNS topic" style="sketch=0;points=[[0,0,0],[0.25,0,0],[0.5,0,0],[0.75,0,0],[1,0,0],[0,1,0],[0.25,1,0],[0.5,1,0],[0.75,1,0],[1,1,0],[0,0.25,0],[0,0.5,0],[0,0.75,0],[1,0.25,0],[1,0.5,0],[1,0.75,0]];outlineConnect=0;fontColor=#232F3E;gradientColor=#F78E04;gradientDirection=north;fillColor=#D05C17;strokeColor=#ffffff;dashed=0;verticalLabelPosition=bottom;verticalAlign=top;align=center;html=1;fontSize=12;fontStyle=0;aspect=fixed;shape=mxgraph.aws4.resourceIcon;resIcon=mxgraph.aws4.lambda;rounded=1;shadow=1;" vertex="1" parent="1">
                    <mxGeometry x="832" y="283" width="60" height="60" as="geometry"/>
                </mxCell>
                <mxCell id="25" style="edgeStyle=none;html=1;strokeColor=#4D4D4D;entryX=1;entryY=0.5;entryDx=0;entryDy=0;entryPerimeter=0;" edge="1" parent="1" source="16" target="17">
                    <mxGeometry relative="1" as="geometry">
                        <mxPoint x="505.6744384765625" y="313" as="targetPoint"/>
                    </mxGeometry>
                </mxCell>
                <mxCell id="28" value="Notify Host with SMS" style="edgeLabel;html=1;align=center;verticalAlign=middle;resizable=0;points=[];fontSize=12;fontColor=#4D4D4D;labelBackgroundColor=none;" vertex="1" connectable="0" parent="25">
                    <mxGeometry x="0.2031" y="-3" relative="1" as="geometry">
                        <mxPoint x="22" y="-7" as="offset"/>
                    </mxGeometry>
                </mxCell>
                <mxCell id="30" style="edgeStyle=none;html=1;entryX=0.5;entryY=0;entryDx=0;entryDy=0;entryPerimeter=0;strokeColor=#4D4D4D;fontSize=12;fontColor=#4D4D4D;" edge="1" parent="1" source="16" target="29">
                    <mxGeometry relative="1" as="geometry"/>
                </mxCell>
                <mxCell id="16" value="SNS Topic" style="sketch=0;points=[[0,0,0],[0.25,0,0],[0.5,0,0],[0.75,0,0],[1,0,0],[0,1,0],[0.25,1,0],[0.5,1,0],[0.75,1,0],[1,1,0],[0,0.25,0],[0,0.5,0],[0,0.75,0],[1,0.25,0],[1,0.5,0],[1,0.75,0]];outlineConnect=0;fontColor=#232F3E;gradientColor=#FF4F8B;gradientDirection=north;fillColor=#BC1356;strokeColor=#ffffff;dashed=0;verticalLabelPosition=bottom;verticalAlign=top;align=center;html=1;fontSize=12;fontStyle=0;aspect=fixed;shape=mxgraph.aws4.resourceIcon;resIcon=mxgraph.aws4.sns;rounded=1;shadow=1;" vertex="1" parent="1">
                    <mxGeometry x="632" y="283" width="60" height="60" as="geometry"/>
                </mxCell>
                <mxCell id="17" value="Host's Mobile" style="sketch=0;points=[[0,0,0],[0.25,0,0],[0.5,0,0],[0.75,0,0],[1,0,0],[0,1,0],[0.25,1,0],[0.5,1,0],[0.75,1,0],[1,1,0],[0,0.25,0],[0,0.5,0],[0,0.75,0],[1,0.25,0],[1,0.5,0],[1,0.75,0]];outlineConnect=0;fontColor=#232F3E;gradientColor=#F54749;gradientDirection=north;fillColor=#C7131F;strokeColor=#ffffff;dashed=0;verticalLabelPosition=bottom;verticalAlign=top;align=center;html=1;fontSize=12;fontStyle=0;aspect=fixed;shape=mxgraph.aws4.resourceIcon;resIcon=mxgraph.aws4.mobile;rounded=1;shadow=1;" vertex="1" parent="1">
                    <mxGeometry x="441" y="295" width="36" height="36" as="geometry"/>
                </mxCell>
                <mxCell id="18" value="&lt;font color=&quot;#000000&quot;&gt;Alexa&lt;/font&gt;" style="outlineConnect=0;dashed=0;verticalLabelPosition=bottom;verticalAlign=top;align=center;html=1;shape=mxgraph.aws3.alexa_voice_service;fillColor=#5294CF;gradientColor=none;rounded=1;shadow=1;sketch=0;strokeColor=#000000;" vertex="1" parent="1">
                    <mxGeometry x="447" y="421" width="36" height="36" as="geometry"/>
                </mxCell>
                <mxCell id="22" style="edgeStyle=none;html=1;strokeColor=#4D4D4D;entryX=0;entryY=0.5;entryDx=0;entryDy=0;entryPerimeter=0;exitX=1;exitY=0.5;exitDx=0;exitDy=0;exitPerimeter=0;" edge="1" parent="1" source="7" target="14">
                    <mxGeometry relative="1" as="geometry">
                        <mxPoint x="819.6744384765625" y="154.5" as="targetPoint"/>
                        <mxPoint x="726" y="154.5" as="sourcePoint"/>
                    </mxGeometry>
                </mxCell>
                <mxCell id="27" value="Face Collection" style="text;html=1;align=center;verticalAlign=middle;resizable=0;points=[];autosize=1;strokeColor=none;fillColor=none;fontColor=#4D4D4D;" vertex="1" parent="1">
                    <mxGeometry x="525.5" y="39" width="101" height="26" as="geometry"/>
                </mxCell>
                <mxCell id="31" style="edgeStyle=none;html=1;strokeColor=#4D4D4D;fontSize=12;fontColor=#4D4D4D;" edge="1" parent="1" source="29" target="18">
                    <mxGeometry relative="1" as="geometry"/>
                </mxCell>
                <mxCell id="29" value="Play Music on Alexa" style="sketch=0;points=[[0,0,0],[0.25,0,0],[0.5,0,0],[0.75,0,0],[1,0,0],[0,1,0],[0.25,1,0],[0.5,1,0],[0.75,1,0],[1,1,0],[0,0.25,0],[0,0.5,0],[0,0.75,0],[1,0.25,0],[1,0.5,0],[1,0.75,0]];outlineConnect=0;fontColor=#232F3E;gradientColor=#F78E04;gradientDirection=north;fillColor=#D05C17;strokeColor=#ffffff;dashed=0;verticalLabelPosition=bottom;verticalAlign=top;align=center;html=1;fontSize=12;fontStyle=0;aspect=fixed;shape=mxgraph.aws4.resourceIcon;resIcon=mxgraph.aws4.lambda;rounded=1;shadow=1;" vertex="1" parent="1">
                    <mxGeometry x="632" y="407" width="60" height="60" as="geometry"/>
                </mxCell>
                <mxCell id="34" value="" style="shape=ellipse;fillColor=#0065FF;strokeColor=none;html=1;sketch=0;rounded=1;shadow=1;labelBackgroundColor=none;fontSize=12;fontColor=#000000;" vertex="1" parent="1">
                    <mxGeometry x="170" y="206" width="53" height="58" as="geometry"/>
                </mxCell>
                <mxCell id="35" value="" style="shape=ellipse;fillColor=#0065FF;strokeColor=none;html=1;sketch=0;rounded=1;shadow=1;labelBackgroundColor=none;fontSize=12;fontColor=#000000;" vertex="1" parent="1">
                    <mxGeometry x="646" y="543" width="53" height="58" as="geometry"/>
                </mxCell>
            </root>
        </mxGraphModel>
    </diagram>
</mxfile>